<?xml version="1.0" encoding="iso-8859-1"?>
<!-- Generator: Adobe Illustrator 19.0.0, SVG Export Plug-In . SVG Version: 6.00 Build 0)  -->
<svg version="1.1" id="Layer_1" xmlns="http://www.w3.org/2000/svg" xmlns:xlink="http://www.w3.org/1999/xlink" x="0px" y="0px"
	 viewBox="0 0 512 512" style="enable-background:new 0 0 512 512;" xml:space="preserve">
<polygon style="fill:white;" points="255.996,145.999 286.48,225.656 371.658,230.032 305.32,283.639 327.478,366.001 
	255.996,319.476 184.512,366.001 206.673,283.639 140.333,230.032 225.513,225.656 "/>
<g>
	<path style="fill:#FFC61B;" d="M327.478,380.519c-2.753,0-5.507-0.781-7.92-2.35l-63.564-41.372l-63.564,41.372
		c-5.042,3.281-11.585,3.114-16.453-0.422c-4.868-3.537-7.048-9.708-5.486-15.517l19.705-73.237l-58.988-47.668
		c-4.679-3.78-6.542-10.057-4.684-15.778c1.86-5.722,7.054-9.704,13.063-10.012l75.742-3.891l27.107-70.833
		c2.15-5.618,7.542-9.329,13.558-9.329s11.408,3.711,13.558,9.329l27.107,70.833l75.742,3.891
		c6.008,0.308,11.204,4.292,13.063,10.012c1.858,5.722-0.003,11.998-4.684,15.778l-58.988,47.668l19.705,73.237
		c1.564,5.809-0.618,11.98-5.486,15.517C333.474,379.592,330.478,380.519,327.478,380.519z M255.996,304.958
		c2.756,0,5.512,0.784,7.92,2.35l39.688,25.83L291.3,287.411c-1.492-5.547,0.427-11.453,4.895-15.064l36.831-29.763l-47.291-2.429
		c-5.737-0.295-10.761-3.945-12.814-9.31l-16.925-44.226l-16.925,44.226c-2.053,5.364-7.078,9.014-12.814,9.31l-47.291,2.429
		l36.831,29.763c4.469,3.611,6.386,9.517,4.895,15.064l-12.304,45.727l39.688-25.83C250.484,305.74,253.239,304.958,255.996,304.958
		z"/>
	<path style="fill:#FFC61B;" d="M255.996,512c-68.38,0-132.667-26.629-181.02-74.98c-5.669-5.669-5.669-14.862,0-20.533
		c5.669-5.669,14.862-5.669,20.533,0c42.867,42.869,99.863,66.476,160.488,66.476s117.62-23.608,160.488-66.476
		C459.351,373.62,482.96,316.624,482.96,256s-23.608-117.62-66.476-160.488c-42.869-42.869-99.863-66.476-160.488-66.476
		S138.376,52.644,95.509,95.512c-57.256,57.256-79.728,141.45-58.65,219.728c2.085,7.742-2.501,15.708-10.244,17.793
		c-7.74,2.083-15.708-2.501-17.793-10.244C-2.68,280.078-2.935,234.853,8.086,192.005C19.44,147.853,42.572,107.387,74.977,74.98
		C123.328,26.629,187.616,0,255.996,0s132.667,26.629,181.02,74.98c48.352,48.352,74.98,112.639,74.98,181.02
		s-26.629,132.667-74.98,181.02C388.663,485.371,324.376,512,255.996,512z"/>
	<path style="fill:#FFC61B;" d="M255.996,452.028c-108.091,0-196.028-87.938-196.028-196.028S147.905,59.972,255.996,59.972
		c69.93,0,135.07,37.687,169.997,98.355c4,6.948,1.61,15.825-5.338,19.826c-6.947,4.001-15.825,1.611-19.826-5.338
		c-29.76-51.693-85.258-83.807-144.833-83.807c-92.08,0-166.992,74.913-166.992,166.992s74.913,166.992,166.992,166.992
		S422.988,348.079,422.988,256c0-8.018,6.5-14.518,14.518-14.518s14.518,6.5,14.518,14.518
		C452.024,364.091,364.085,452.028,255.996,452.028z"/>
</g>
<g>
</g>
<g>
</g>
<g>
</g>
<g>
</g>
<g>
</g>
<g>
</g>
<g>
</g>
<g>
</g>
<g>
</g>
<g>
</g>
<g>
</g>
<g>
</g>
<g>
</g>
<g>
</g>
<g>
</g>
</svg>
